<?xml version="1.0" encoding="UTF-8"?>
<svg width="120" height="120" viewBox="0 0 120 120" fill="none" xmlns="http://www.w3.org/2000/svg">
  <!-- Circular background -->
  <circle cx="60" cy="60" r="60" fill="#2D3748"/>
  
  <!-- Payment/credit card icon -->
  <rect x="30" y="40" width="60" height="40" rx="6" fill="#4299E1"/>
  
  <!-- Card details -->
  <rect x="36" y="52" width="30" height="4" rx="2" fill="white"/>
  <rect x="36" y="60" width="20" height="4" rx="2" fill="white"/>
  <rect x="36" y="68" width="10" height="4" rx="2" fill="white"/>
  <circle cx="74" cy="60" r="8" fill="#FBD38D"/>
  <circle cx="80" cy="60" r="8" fill="#F6AD55" fill-opacity="0.8"/>
  
  <!-- Python symbol -->
  <path d="M60 25C54.1634 25 51.3333 27.1634 51.3333 32C51.3333 37.1667 52.8333 40.6667 60 40.6667C67.1667 40.6667 68.6667 37.1667 68.6667 32C68.6667 27.1634 65.8366 25 60 25Z" fill="#4FC08D"/>
  <path d="M60 95C65.8366 95 68.6667 92.8366 68.6667 88C68.6667 82.8333 67.1667 79.3333 60 79.3333C52.8333 79.3333 51.3333 82.8333 51.3333 88C51.3333 92.8366 54.1634 95 60 95Z" fill="#306998"/>
  
  <!-- Connecting path -->
  <path d="M57 40.6667V79.3333M63 40.6667V79.3333" stroke="#A0AEC0" stroke-width="2" stroke-linecap="round"/>
</svg>